<?xml version="1.0" standalone="no"?> <!DOCTYPE svg PUBLIC "-//W3C//DTD SVG 1.0//EN" "http://www.w3.org/TR/2001/REC-SVG-20010904/DTD/svg10.dtd" > <svg xmlns="http://www.w3.org/2000/svg" width="100%" height="100%">
<defs >
<font id="gothamrndbold" horiz-adv-x="1047" ><font-face
    font-family="Gotham Rounded Bold"
    units-per-em="2048"
    panose-1="0 0 0 0 0 0 0 0 0 0"
    ascent="1638"
    descent="-409"
    alphabetic="0" />
<missing-glyph horiz-adv-x="1024" d="M0 -410V1638H1024V-410H0ZM145 1536L512 737L879 1536H145ZM102 -156L455 614L102 1384V-156ZM922 1384L569 614L922 -156V1384ZM512 492L145 -307H879L512 492Z" />
<glyph unicode=" " glyph-name="space" horiz-adv-x="614" />
<glyph unicode="!" glyph-name="exclam" horiz-adv-x="663" d="M238 565L150 1335Q145 1380 167 1410T231 1440H432Q473 1440 496 1410T514 1335L426 565Q422 524 396 500T332 475T268 499T238 565ZM154 166Q154 240 204 290T332 340Q408 340 459 290T510 166V162Q510
88 459 38T332 -12Q255 -12 205 37T154 162V166Z" />
<glyph unicode="&quot;" glyph-name="quotedbl" horiz-adv-x="1064" d="M604 862L629 1300Q632 1360 671 1401T772 1442H870Q904 1442 927 1419T950 1360Q950 1338 944 1317L780 844Q753 768 690 768Q653 768 628 794T604 862ZM121 862L145 1300Q149 1360 188
1401T289 1442H387Q421 1442 444 1419T467 1360Q467 1338 461 1317L297 844Q270 768 207 768Q170 768 145 794T121 862Z" />
<glyph unicode="#" glyph-name="numbersign" horiz-adv-x="1433" d="M209 141L238 307H190Q137 307 98 346T59 438Q59 492 98 530T190 569H283L334 872H262Q208 872 170 911T131 1004Q131 1057 169 1096T262 1135H379L414 1337Q421 1386 458 1416T545 1446Q605
1446 645 1399T676 1292L649 1135H926L961 1337Q968 1386 1005 1416T1092 1446Q1151 1446 1191 1399T1223 1292L1196 1135H1243Q1297 1135 1335 1096T1374 1004Q1374 950 1336 911T1243 872H1151L1100 569H1171Q1225 569 1264 531T1303 438Q1303 385 1264 346T1171
307H1055L1018 96Q1011 49 974 19T887 -12Q827 -12 786 35T756 141L784 307H508L471 96Q463 52 428 20T340 -12Q279 -12 239 33T209 141ZM553 569H829L881 872H604L553 569Z" />
<glyph unicode="$" glyph-name="dollar" horiz-adv-x="1323" d="M573 1458Q573 1503 604 1534T680 1565T755 1534T786 1458V1430Q950 1405 1083 1331Q1157 1289 1157 1208Q1157 1150 1117 1111T1018 1071Q980 1071 946 1090Q851 1140 776 1159V848Q1011 785 1116
682T1221 408Q1221 239 1103 132T786 2V-106Q786 -151 755 -182T680 -213T605 -182T573 -106V4Q361 32 170 147Q100 191 100 270Q100 330 141 370T242 410Q280 410 322 383Q458 296 584 268V594Q354 656 249 754T143 1030Q143 1197 260 1305T573 1434V1458ZM922
391Q922 444 890 479T776 543V258Q922 279 922 391ZM442 1049Q442 998 472 964T584 901V1178Q442 1156 442 1049Z" />
<glyph unicode="%" glyph-name="percent" horiz-adv-x="1761" d="M438 717Q285 717 189 821T92 1079V1083Q92 1238 190 1344T442 1450Q595 1450 691 1346T788 1087V1083Q788 930 690 824T438 717ZM322 84Q322 115 344 150L1260 1403Q1289 1446 1343 1446Q1383
1446 1411 1418T1440 1350Q1440 1313 1417 1284L502 31Q472 -12 418 -12Q378 -12 350 16T322 84ZM1319 -16Q1166 -16 1070 88T973 346V350Q973 505 1071 611T1323 717Q1476 717 1572 613T1669 354V350Q1669 197 1571 91T1319 -16ZM442 903Q504 903 538 954T573
1079V1083Q573 1158 536 1211T438 1264Q376 1264 342 1213T307 1087V1083Q307 1009 344 956T442 903ZM1323 170Q1385 170 1419 221T1454 346V350Q1454 424 1417 477T1319 530Q1257 530 1223 480T1188 354V350Q1188 276 1225 223T1323 170Z" />
<glyph unicode="&amp;" glyph-name="ampersand" horiz-adv-x="1425" d="M1202 -20Q1142 -20 1098 25L977 145Q784 -20 551 -20Q341 -20 206 93T70 393V397Q70 664 348 791Q248 927 248 1077V1081Q248 1155 277 1223T361 1343T498 1427T682 1458Q862 1458 973 1355T1085
1098V1094Q1085 836 786 719L975 532Q1017 595 1069 688Q1082 715 1113 737T1186 760Q1239 760 1278 721T1317 629Q1317 594 1298 563Q1234 453 1161 348L1292 219Q1339 172 1339 117Q1339 58 1300 19T1202 -20ZM621 885Q719 922 765 965T811 1075V1079Q811 1140
774 1176T676 1212Q613 1212 575 1172T537 1067V1063Q537 1016 556 976T621 885ZM588 238Q692 238 797 324L522 600Q387 528 387 410V406Q387 331 443 285T588 238Z" />
<glyph unicode="&apos;" glyph-name="quotesingle" horiz-adv-x="585" d="M121 862L145 1300Q149 1360 188 1401T289 1442H387Q422 1442 446 1419T471 1360Q471 1338 465 1317L301 844Q274 768 207 768Q169 768 145 794T121 862Z" />
<glyph unicode="(" glyph-name="parenleft" horiz-adv-x="911" d="M705 -272Q658 -272 631 -256Q375 -102 248 105T121 588T248 1071T631 1432Q658 1448 705 1448Q750 1448 786 1409T823 1321Q823 1254 772 1219Q592 1083 511 936T430 588Q430 386 511 239T772
-43Q823 -78 823 -145Q823 -193 787 -232T705 -272Z" />
<glyph unicode=")" glyph-name="parenright" horiz-adv-x="911" d="M207 -272Q161 -272 125 -233T88 -145Q88 -79 139 -43Q319 92 400 239T481 588Q481 790 401 936T139 1219Q88 1255 88 1321Q88 1369 124 1408T207 1448Q252 1448 281 1432Q536 1277 663 1071T791
588T664 106T281 -256Q252 -272 207 -272Z" />
<glyph unicode="*" glyph-name="asterisk" horiz-adv-x="880" d="M367 840L389 1008L250 901Q218 877 190 877Q158 877 136 900T113 956Q113 982 129 1002T168 1030L334 1100L168 1169Q113 1192 113 1245Q113 1277 137 1300T193 1323Q219 1323 250 1298L389 1192L367
1358Q362 1397 383 1423T440 1450Q477 1450 498 1424T514 1360L492 1192L631 1298Q660 1323 690 1323Q722 1323 745 1299T768 1243Q768 1195 713 1169L547 1100L713 1030Q737 1020 752 1000T768 954Q768 922 745 900T688 877Q661 877 631 901L492 1008L514 842Q519
803 498 777T440 750Q403 750 383 775T367 840Z" />
<glyph unicode="+" glyph-name="plus" horiz-adv-x="1310" d="M510 344V580H268Q210 580 169 621T127 721T168 821T268 862H510V1098Q510 1158 552 1200T655 1243T758 1201T801 1098V862H1042Q1101 862 1142 821T1184 721T1143 622T1042 580H801V344Q801 284 758
242T655 199T553 241T510 344Z" />
<glyph unicode="," glyph-name="comma" horiz-adv-x="585" d="M39 -262Q39 -236 56 -219T100 -195Q178 -176 219 -125T258 0Q200 15 158 60T115 168V172Q115 245 162 292T285 340Q370 340 418 279T467 111V102Q467 -114 346 -233Q301 -279 238 -305T117 -332Q78
-332 59 -312T39 -262Z" />
<glyph unicode="-" glyph-name="hyphen" horiz-adv-x="835" d="M240 485Q178 485 134 529T90 635T134 740T240 784H596Q658 784 701 740T745 635Q745 573 701 529T596 485H240Z" />
<glyph unicode="." glyph-name="period" horiz-adv-x="585" d="M115 166Q115 240 165 290T293 340Q369 340 420 290T471 166V162Q471 88 420 38T293 -12Q216 -12 166 37T115 162V166Z" />
<glyph unicode="/" glyph-name="slash" horiz-adv-x="1085" d="M6 -158Q6 -133 20 -98L821 1575Q856 1647 930 1647Q978 1647 1014 1612T1051 1530Q1051 1508 1036 1470L236 -203Q201 -274 127 -274Q78 -274 42 -239T6 -158Z" />
<glyph unicode="0" glyph-name="zero" horiz-adv-x="1495" d="M745 -25Q604 -25 485 32T284 188T157 422T111 713V717Q111 924 190 1092T416 1359T750 1458Q935 1458 1080 1361T1305 1096T1384 721V717Q1384 510 1305 341T1079 74T745 -25ZM750 260Q890 260 975
387T1061 713V717Q1061 914 973 1044T745 1174T520 1047T434 721V717Q434 518 521 389T750 260Z" />
<glyph unicode="1" glyph-name="one" horiz-adv-x="864" d="M365 143V1135L254 1106Q222 1098 199 1098Q143 1098 102 1138T61 1233Q61 1280 89 1317T166 1368L369 1427Q463 1454 516 1454H520Q584 1454 630 1408T676 1298V143Q676 79 631 34T520 -12Q456 -12
411 33T365 143Z" />
<glyph unicode="2" glyph-name="two" horiz-adv-x="1275" d="M88 150Q88 240 170 307L578 641Q672 718 722 769T799 873T825 985Q825 1074 772 1122T633 1171Q567 1171 514 1142T399 1047Q359 1001 293 1001Q233 1001 192 1043T150 1145Q150 1200 186 1243Q277
1348 387 1401T653 1454Q876 1454 1011 1334T1147 1012V1008Q1147 937 1131 876T1089 766T1012 663T908 564T770 453L537 272H1036Q1093 272 1133 232T1174 135T1134 39T1036 0H258Q183 0 136 40T88 150Z" />
<glyph unicode="3" glyph-name="three" horiz-adv-x="1271" d="M637 -25Q354 -25 162 139Q109 185 109 252Q109 314 153 358T260 403Q314 403 360 365Q485 258 641 258Q731 258 787 305T844 432V436Q844 523 770 570T563 618H514Q459 618 419 658T379 754Q379
816 446 883L725 1163H285Q230 1163 190 1203T150 1298Q150 1354 190 1394T285 1434H983Q1053 1434 1098 1396T1143 1294Q1143 1241 1121 1204T1049 1118L768 850Q847 837 911 810T1032 738T1121 619T1153 449V444Q1153 238 1013 107T637 -25Z" />
<glyph unicode="4" glyph-name="four" horiz-adv-x="1411" d="M815 137V309H225Q161 309 117 351T72 455Q72 540 145 627L768 1350Q817 1407 858 1431T965 1456Q1028 1456 1072 1413T1116 1307V565H1192Q1246 565 1283 528T1321 436Q1321 383 1284 346T1192 309H1116V137Q1116
74 1072 31T965 -12T859 31T815 137ZM434 565H815V1012L434 565Z" />
<glyph unicode="5" glyph-name="five" horiz-adv-x="1290" d="M635 -25Q375 -25 184 111Q121 155 121 231Q121 293 165 338T270 383Q319 383 356 354Q485 262 629 262Q731 262 795 315T860 461V465Q860 556 791 607T606 659Q536 659 469 641T389 623Q356 623 326
637T246 686Q182 732 188 813L217 1298Q220 1355 260 1394T356 1434H979Q1036 1434 1077 1393T1118 1294Q1118 1238 1077 1198T979 1157H496L479 909Q576 934 668 934Q776 934 865 908T1024 827T1131 683T1169 475V471Q1169 246 1021 111T635 -25Z" />
<glyph unicode="6" glyph-name="six" horiz-adv-x="1355" d="M694 -25Q435 -25 281 129Q197 212 154 340T111 672V676Q111 810 135 927T209 1142T332 1310T509 1419T739 1458Q940 1458 1085 1372Q1167 1324 1167 1237Q1167 1176 1124 1134T1018 1092Q982 1092
940 1114Q838 1171 729 1171Q602 1171 530 1081T440 840Q507 883 574 907T737 932Q959 932 1100 812T1241 475V471Q1241 253 1086 114T694 -25ZM567 246T682 246T862 304T928 457V461Q928 553 861 611T678 670T498 613T432 463V459Q432 366 499 306Z" />
<glyph unicode="7" glyph-name="seven" horiz-adv-x="1267" d="M252 129Q252 179 281 227L813 1161H264Q207 1161 167 1200T127 1296Q127 1353 167 1393T264 1434H1042Q1109 1434 1147 1397T1186 1292Q1186 1224 1141 1139L565 94Q508 -12 414 -12Q347 -12 300
26T252 129Z" />
<glyph unicode="8" glyph-name="eight" horiz-adv-x="1290" d="M645 -20Q404 -20 248 94T92 393V397Q92 524 149 607T324 743Q235 798 188 872T141 1057V1061Q141 1228 281 1341T645 1454Q869 1454 1009 1342T1149 1061V1057Q1149 947 1102 873T967 743Q1083 683
1140 605T1198 406V401Q1198 206 1044 93T645 -20ZM553 848T645 848T793 897T850 1022V1026Q850 1095 794 1144T645 1194T496 1146T440 1028V1024Q440 948 496 898ZM531 240T645 240T826 290T893 418V422Q893 503 824 550T645 598T467 551T397 422V418Q397 341
464 291Z" />
<glyph unicode="9" glyph-name="nine" horiz-adv-x="1355" d="M618 -25Q405 -25 240 78Q166 123 166 207Q166 268 209 309T315 350Q356 350 397 326Q507 262 627 262Q755 262 828 349T918 588Q803 489 627 489Q391 489 253 612T115 952V956Q115 1174 268 1316T662
1458Q804 1458 898 1422T1075 1303Q1158 1220 1201 1092T1245 762V758Q1245 524 1175 349T961 75T618 -25ZM678 752Q793 752 858 811T924 965V969Q924 1066 856 1127T672 1188Q557 1188 493 1128T428 971V967Q428 870 495 811T678 752Z" />
<glyph unicode=":" glyph-name="colon" horiz-adv-x="606" d="M125 936Q125 1010 176 1060T303 1110Q380 1110 430 1060T481 936V932Q481 858 431 808T303 758Q227 758 176 808T125 932V936ZM125 166Q125 240 176 290T303 340Q380 340 430 290T481 166V162Q481
87 431 38T303 -12Q227 -12 176 38T125 162V166Z" />
<glyph unicode=";" glyph-name="semicolon" horiz-adv-x="606" d="M125 936Q125 1010 176 1060T303 1110Q380 1110 430 1060T481 936V932Q481 858 431 808T303 758Q227 758 176 808T125 932V936ZM49 -262Q49 -209 111 -195Q189 -176 230 -125T268 0Q210 15 168
60T125 168V172Q125 245 172 292T295 340Q381 340 429 279T477 111V102Q477 -114 356 -233Q311 -279 248 -305T127 -332Q88 -332 69 -312T49 -262Z" />
<glyph unicode="&lt;" glyph-name="less" horiz-adv-x="1310" d="M1008 190Q982 190 942 209L252 537Q127 595 127 711V731Q127 846 252 905L942 1233Q984 1253 1018 1253Q1068 1255 1105 1217T1143 1124Q1143 1040 1057 999L438 723L1057 446Q1097 428 1120 394T1143
317Q1143 261 1104 225T1008 190Z" />
<glyph unicode="=" glyph-name="equal" horiz-adv-x="1310" d="M279 846Q220 846 179 887T137 987T178 1086T279 1128H1032Q1091 1128 1132 1087T1174 987T1133 888T1032 846H279ZM279 313Q220 313 179 354T137 455Q137 513 179 554T279 596H1032Q1090 596 1132
555T1174 455Q1174 396 1132 355T1032 313H279Z" />
<glyph unicode="&gt;" glyph-name="greater" horiz-adv-x="1310" d="M303 1251Q331 1251 369 1233L1059 905Q1184 846 1184 731V711Q1184 595 1059 537L369 209Q325 188 293 188Q243 186 206 224T168 317Q168 403 254 442L872 719L254 995Q168 1036 168 1124Q168
1181 207 1217T303 1251Z" />
<glyph unicode="?" glyph-name="question" horiz-adv-x="1114" d="M518 475H502Q458 475 428 503T391 575L371 715Q363 765 389 798T465 838Q599 855 662 897T725 1016V1020Q725 1089 676 1127T537 1165Q407 1165 299 1083Q255 1051 207 1051Q148 1051 106 1093T63
1194Q63 1260 117 1305Q293 1452 543 1452Q768 1452 903 1341T1038 1028V1024Q1038 948 1017 886T961 780T873 702T763 647T635 612L629 575Q623 534 592 505T518 475ZM324 166Q324 240 374 290T502 340Q578 340 629 290T680 166V162Q680 88 629 38T502 -12Q425
-12 375 37T324 162V166Z" />
<glyph unicode="@" glyph-name="at" horiz-adv-x="2007" d="M1022 -332Q893 -332 773 -300T552 -209T369 -69T229 112T141 325T109 561Q109 706 153 842T280 1089T473 1283T720 1412T1006 1458Q1153 1458 1290 1415T1537 1293T1728 1114T1854 892T1898 647Q1898
522 1866 423T1779 262T1650 166T1491 133Q1284 133 1178 256Q1041 133 874 133Q714 133 607 241T500 528Q500 669 564 788T734 974T958 1042Q1139 1042 1241 903V905Q1250 966 1283 997T1370 1028Q1426 1028 1463 986T1489 879L1409 422Q1403 391 1403 358Q1403
302 1443 266T1552 229Q1666 229 1739 339T1812 647Q1812 788 1750 920T1582 1153T1325 1315T1006 1376Q870 1376 745 1335T520 1218T348 1043T235 818T195 561Q195 394 257 245T427 -14T689 -186T1022 -250Q1164 -250 1277 -219T1505 -123Q1514 -117 1528 -117Q1543
-117 1554 -129T1565 -158Q1565 -177 1544 -190Q1303 -332 1022 -332ZM946 344Q1044 344 1117 429T1190 639Q1190 726 1137 778T999 831Q898 831 826 748T754 543Q754 450 807 397T946 344Z" />
<glyph unicode="A" glyph-name="A" horiz-adv-x="1568" d="M74 135Q74 162 92 203L592 1331Q648 1456 776 1456H795Q921 1456 977 1331L1477 203Q1493 166 1493 139Q1493 76 1450 32T1343 -12Q1240 -12 1192 96L1096 322H465L365 86Q345 40 307 14T219 -12Q158
-12 116 30T74 135ZM582 600H979L780 1073L582 600Z" />
<glyph unicode="B" glyph-name="B" horiz-adv-x="1478" d="M172 158V1276Q172 1342 218 1388T330 1434H838Q1085 1434 1212 1307Q1311 1208 1311 1063V1059Q1311 855 1122 750Q1255 699 1323 617T1391 397V393Q1391 201 1247 101T854 0H330Q264 0 218 46T172 158ZM479
854H770Q997 854 997 1006V1010Q997 1081 944 1119T791 1157H479V854ZM479 276H854Q961 276 1019 315T1077 432V436Q1077 510 1020 551T844 592H479V276Z" />
<glyph unicode="C" glyph-name="C" horiz-adv-x="1511" d="M844 -25Q637 -25 468 73T204 340T109 713V717Q109 868 164 1004T317 1240T554 1399T856 1458Q1141 1458 1335 1313Q1397 1266 1397 1188Q1397 1124 1352 1079T1241 1034Q1196 1034 1147 1065Q1009 1167
854 1167Q675 1167 557 1038T438 721V717Q438 529 555 398T854 266Q949 266 1021 294T1165 379Q1209 414 1260 414Q1320 414 1363 371T1407 268Q1407 201 1354 156Q1252 67 1131 21T844 -25Z" />
<glyph unicode="D" glyph-name="D" horiz-adv-x="1601" d="M172 158V1276Q172 1342 218 1388T330 1434H731Q897 1434 1040 1379T1282 1229T1437 1003T1493 721V717Q1493 567 1437 435T1282 207T1040 56T731 0H330Q264 0 218 46T172 158ZM487 285H731Q924 285 1043
403T1163 713V717Q1163 908 1044 1028T731 1149H487V285Z" />
<glyph unicode="E" glyph-name="E" horiz-adv-x="1372" d="M330 0Q264 0 218 46T172 158V1276Q172 1342 218 1388T330 1434H1124Q1182 1434 1224 1392T1266 1292T1225 1194T1124 1153H485V862H1032Q1091 862 1132 821T1174 721T1133 623T1032 582H485V281H1135Q1193
281 1234 239T1276 139T1235 41T1135 0H330Z" />
<glyph unicode="F" glyph-name="F" horiz-adv-x="1343" d="M172 145V1276Q172 1342 218 1388T330 1434H1133Q1192 1434 1234 1392T1276 1290T1234 1189T1133 1147H487V842H1040Q1100 842 1142 800T1184 698T1142 597T1040 555H487V145Q487 79 442 34T330 -12T218
33T172 145Z" />
<glyph unicode="G" glyph-name="G" horiz-adv-x="1605" d="M862 -25Q697 -25 557 31T318 185T165 419T109 713V717Q109 868 166 1004T321 1240T560 1399T860 1458Q1017 1458 1133 1424T1350 1319Q1415 1269 1415 1192Q1415 1127 1370 1082T1260 1036Q1210 1036
1163 1069Q1025 1167 850 1167Q679 1167 559 1036T438 721V717Q438 520 560 391T872 262Q1050 262 1169 348V553H956Q899 553 859 592T819 688T859 785T956 825H1317Q1383 825 1429 780T1475 668V319Q1475 185 1364 119Q1130 -25 862 -25Z" />
<glyph unicode="H" glyph-name="H" horiz-adv-x="1556" d="M172 145V1288Q172 1354 218 1400T330 1446T441 1400T487 1288V866H1069V1288Q1069 1354 1115 1400T1227 1446T1338 1400T1384 1288V145Q1384 79 1339 34T1227 -12T1115 33T1069 145V575H487V145Q487
79 442 34T330 -12T218 33T172 145Z" />
<glyph unicode="I" glyph-name="I" horiz-adv-x="688" d="M186 145V1288Q186 1354 232 1400T344 1446T456 1400T502 1288V145Q502 79 456 34T344 -12T232 33T186 145Z" />
<glyph unicode="J" glyph-name="J" horiz-adv-x="1155" d="M498 -20Q281 -20 119 104Q93 124 76 157T59 225Q59 288 102 332T209 377Q259 377 303 344Q401 272 494 272Q690 272 690 510V1288Q690 1354 736 1400T848 1446T960 1400T1006 1288V496Q1006 249 870
113Q737 -20 498 -20Z" />
<glyph unicode="K" glyph-name="K" horiz-adv-x="1458" d="M172 145V1288Q172 1354 218 1400T330 1446T441 1400T487 1288V807L1069 1384Q1131 1446 1202 1446Q1266 1446 1307 1403T1348 1300Q1348 1235 1290 1182L887 805L1327 252Q1370 199 1370 141Q1370 75
1325 32T1210 -12Q1135 -12 1077 63L668 600L487 432V145Q487 79 442 34T330 -12T218 33T172 145Z" />
<glyph unicode="L" glyph-name="L" horiz-adv-x="1267" d="M172 158V1288Q172 1354 218 1400T330 1446T441 1400T487 1288V287H1071Q1131 287 1172 245T1214 143T1173 42T1071 0H330Q264 0 218 46T172 158Z" />
<glyph unicode="M" glyph-name="M" horiz-adv-x="1777" d="M172 141V1284Q172 1350 218 1396T330 1442H365Q457 1442 508 1360L889 739L1272 1362Q1322 1442 1413 1442H1448Q1514 1442 1560 1396T1606 1284V145Q1606 79 1560 34T1448 -12Q1384 -12 1338 34T1292
145V860L1016 434Q962 354 885 354Q806 354 754 434L481 854V141Q481 77 436 33T326 -12T217 32T172 141Z" />
<glyph unicode="N" glyph-name="N" horiz-adv-x="1617" d="M172 143V1284Q172 1350 218 1396T330 1442H362Q415 1442 452 1419T526 1350L1135 551V1290Q1135 1355 1180 1400T1290 1446T1400 1400T1446 1290V150Q1446 83 1400 38T1288 -8H1278Q1225 -8 1188 15T1114
84L483 911V143Q483 78 438 33T328 -12Q263 -12 218 33T172 143Z" />
<glyph unicode="O" glyph-name="O" horiz-adv-x="1740" d="M868 -25Q706 -25 564 33T322 190T166 426T109 713V717Q109 868 166 1004T324 1240T567 1399T872 1458Q1035 1458 1177 1400T1418 1243T1575 1008T1632 721V717Q1632 566 1575 430T1417 193T1174 34T868
-25ZM748 266T872 266T1095 326T1249 489T1303 713V717Q1303 904 1180 1035T868 1167Q744 1167 645 1107T492 945T438 721V717Q438 595 493 492T648 328Z" />
<glyph unicode="P" glyph-name="P" horiz-adv-x="1368" d="M172 145V1276Q172 1342 218 1388T330 1434H758Q1011 1434 1159 1298T1307 938V934Q1307 813 1262 716T1138 557T954 463T727 430H487V145Q487 79 442 34T330 -12T218 33T172 145ZM487 711H737Q853 711
920 772T987 928V932Q987 1036 919 1092T731 1149H487V711Z" />
<glyph unicode="Q" glyph-name="Q" horiz-adv-x="1740" d="M868 -25Q706 -25 564 33T322 190T166 426T109 713V717Q109 868 166 1004T324 1240T567 1399T872 1458Q1035 1458 1177 1400T1418 1243T1575 1008T1632 721V717Q1632 494 1505 305L1567 254Q1624 202
1624 135Q1624 73 1581 30T1477 -14Q1415 -14 1372 29L1294 98Q1105 -25 868 -25ZM911 432Q854 484 854 551Q854 613 897 656T1001 700Q1057 700 1106 657L1264 516Q1303 609 1303 713V717Q1303 904 1180 1035T868 1167Q744 1167 645 1107T492 945T438 721V717Q438
595 493 492T648 328T872 266Q978 266 1061 305L911 432Z" />
<glyph unicode="R" glyph-name="R" horiz-adv-x="1480" d="M172 145V1276Q172 1342 218 1388T330 1434H827Q1099 1434 1245 1288Q1368 1165 1368 961V956Q1368 639 1081 520L1300 254Q1352 189 1352 133Q1352 69 1307 29T1202 -12Q1110 -12 1047 70L739 459H487V145Q487
79 442 34T330 -12T218 33T172 145ZM487 737H807Q921 737 985 792T1049 940V944Q1049 1044 984 1096T801 1149H487V737Z" />
<glyph unicode="S" glyph-name="S" horiz-adv-x="1310" d="M682 -20Q382 -20 143 152Q117 171 101 202T84 270Q84 331 127 373T231 416Q278 416 322 387Q496 258 688 258Q785 258 840 294T895 393V397Q895 439 873 467T789 522T606 580Q526 600 470 618T355 662T260
719T191 793T146 892T131 1018V1022Q131 1216 271 1335T633 1454Q887 1454 1087 1327Q1116 1310 1136 1278T1157 1202Q1157 1141 1115 1099T1010 1057Q968 1057 930 1079Q766 1176 629 1176Q542 1176 493 1141T444 1051V1047Q444 977 503 942T754 858Q869 828 948
794T1089 709T1179 590T1208 428V424Q1208 215 1064 98T682 -20Z" />
<glyph unicode="T" glyph-name="T" horiz-adv-x="1327" d="M506 145V1143H203Q143 1143 100 1185T57 1288T100 1391T203 1434H1124Q1184 1434 1227 1391T1270 1288T1227 1186T1124 1143H821V145Q821 79 776 34T664 -12Q597 -12 552 33T506 145Z" />
<glyph unicode="U" glyph-name="U" horiz-adv-x="1548" d="M770 -23Q477 -23 314 140T150 614V1288Q150 1354 195 1400T307 1446T419 1400T465 1288V623Q465 450 546 359T774 268Q921 268 1002 356T1083 612V1288Q1083 1354 1129 1400T1241 1446T1353 1400T1399
1288V625Q1399 306 1233 142T770 -23Z" />
<glyph unicode="V" glyph-name="V" horiz-adv-x="1486" d="M733 -23Q609 -23 555 102L90 1214Q72 1259 72 1290Q72 1356 117 1401T229 1446Q288 1446 329 1416T389 1335L748 408L1110 1346Q1126 1387 1167 1416T1262 1446Q1327 1446 1372 1402T1417 1294Q1417
1261 1401 1225L932 102Q878 -23 754 -23H733Z" />
<glyph unicode="W" glyph-name="W" horiz-adv-x="2248" d="M483 106L82 1233Q70 1269 70 1292Q70 1357 117 1401T231 1446Q286 1446 328 1415T385 1333L670 455L956 1325Q975 1383 1016 1416T1116 1450H1141Q1200 1450 1241 1417T1300 1325L1587 455L1872 1333Q1888
1382 1928 1414T2023 1446Q2088 1446 2133 1402T2179 1294Q2179 1269 2167 1233L1765 106Q1744 46 1701 12T1602 -23H1569Q1513 -23 1471 11T1407 106L1124 928L842 106Q820 45 778 11T680 -23H647Q591 -23 548 11T483 106Z" />
<glyph unicode="X" glyph-name="X" horiz-adv-x="1454" d="M94 133Q94 193 141 254L528 729L164 1174Q117 1230 117 1290Q117 1356 161 1401T272 1446Q321 1446 354 1427T418 1368L731 950L1042 1360Q1077 1404 1111 1425T1196 1446Q1252 1446 1295 1406T1339
1300Q1339 1239 1292 1180L928 733L1313 260Q1360 199 1360 143Q1360 77 1316 33T1204 -12Q1156 -12 1123 6T1059 66L723 506L391 74Q357 29 322 9T238 -12Q182 -12 138 28T94 133Z" />
<glyph unicode="Y" glyph-name="Y" horiz-adv-x="1409" d="M547 145V553L84 1182Q45 1233 45 1294Q45 1357 91 1401T203 1446Q292 1446 358 1350L707 848L1061 1354Q1125 1448 1212 1448Q1283 1448 1324 1405T1366 1294Q1366 1239 1325 1184L862 559V145Q862 79
817 34T705 -12Q638 -12 593 33T547 145Z" />
<glyph unicode="Z" glyph-name="Z" horiz-adv-x="1449" d="M256 0Q199 0 158 41T117 139V145Q117 227 174 293L918 1157H281Q224 1157 183 1197T141 1294Q141 1351 182 1392T281 1434H1196Q1253 1434 1294 1393T1335 1294V1288Q1335 1210 1278 1141L535 276H1196Q1253
276 1294 235T1335 137T1294 40T1196 0H256Z" />
<glyph unicode="[" glyph-name="bracketleft" horiz-adv-x="952" d="M170 -115V1282Q170 1345 214 1389T322 1434H721Q771 1434 807 1398T844 1311Q844 1260 808 1225T721 1190H469V-23H721Q772 -23 808 -58T844 -143Q844 -194 808 -230T721 -266H322Q259 -266
215 -222T170 -115Z" />
<glyph unicode="\" glyph-name="backslash" horiz-adv-x="1085" d="M1079 -158Q1079 -204 1043 -239T958 -274Q883 -274 850 -203L49 1470Q35 1505 35 1530Q35 1576 71 1611T156 1647Q230 1647 264 1575L1065 -98Q1079 -133 1079 -158Z" />
<glyph unicode="]" glyph-name="bracketright" horiz-adv-x="952" d="M782 1282V-115Q782 -178 738 -222T631 -266H231Q181 -266 145 -230T109 -143Q109 -93 145 -58T231 -23H483V1190H231Q180 1190 145 1225T109 1311Q109 1361 145 1397T231 1434H631Q694 1434
738 1390T782 1282Z" />
<glyph unicode="^" glyph-name="asciicircum" horiz-adv-x="1024" d="M510 1249L406 1114Q353 1046 316 1023T225 999Q195 999 176 1012T156 1049Q156 1082 184 1122L346 1350Q378 1395 414 1416T502 1438H520Q572 1438 608 1417T676 1350L838 1122Q866 1082 866
1049Q866 1026 847 1013T797 999Q741 999 705 1022T614 1114L510 1249Z" />
<glyph unicode="_" glyph-name="underscore" horiz-adv-x="1228" d="M-4 -328Q-53 -328 -88 -293T-123 -209T-89 -125T-4 -90H1233Q1282 -90 1317 -125T1352 -209T1317 -293T1233 -328H-4Z" />
<glyph unicode="`" glyph-name="grave" horiz-adv-x="1024" d="M606 1206Q551 1206 511 1220T428 1274L301 1393Q260 1429 260 1466Q260 1500 317 1530T434 1561Q507 1561 551 1491L664 1315Q684 1281 684 1260Q684 1236 662 1221T606 1206Z" />
<glyph unicode="a" glyph-name="a" horiz-adv-x="1212" d="M451 -20Q289 -20 182 69T74 315V319Q74 493 193 581T516 670Q651 670 784 625V643Q784 741 725 792T549 844Q436 844 334 813Q309 805 289 805Q235 805 198 841T160 932Q160 973 183 1006T244 1053Q395
1110 594 1110Q842 1110 965 987Q1083 869 1083 637V137Q1083 74 1039 31T932 -12Q867 -12 825 26T782 117V119Q658 -20 451 -20ZM545 195Q653 195 720 248T788 387V442Q701 483 590 483Q489 483 432 444T375 332V328Q375 266 421 231T545 195Z" />
<glyph unicode="b" glyph-name="b" horiz-adv-x="1382" d="M139 143V1352Q139 1416 184 1461T295 1507T405 1462T451 1352V940Q582 1118 793 1118Q890 1118 979 1081T1138 973T1250 794T1292 551V547Q1292 414 1251 305T1140 125T981 18T793 -20Q586 -20 451 143V141Q451
78 405 33T295 -12Q230 -12 185 33T139 143ZM601 244T713 244T903 328T981 547V551Q981 684 903 769T713 854T524 770T446 551V547Q446 413 523 329Z" />
<glyph unicode="c" glyph-name="c" horiz-adv-x="1169" d="M657 -25Q496 -25 365 51T160 257T86 543V547Q86 703 159 833T365 1040T662 1118Q891 1118 1036 995Q1085 958 1085 889Q1085 831 1044 791T944 750Q893 750 854 780Q764 850 659 850Q545 850 469 763T393
551V547Q393 418 470 331T672 244Q781 244 877 319Q913 348 961 348Q1016 348 1054 310T1092 215T1047 117Q890 -25 657 -25Z" />
<glyph unicode="d" glyph-name="d" horiz-adv-x="1382" d="M1243 1352V143Q1243 78 1198 33T1087 -12T977 33T932 143V158Q801 -20 590 -20Q493 -20 404 17T245 125T132 304T90 547V551Q90 684 131 793T243 973T402 1080T590 1118Q794 1118 932 954V1352Q932 1416
977 1461T1087 1507T1197 1462T1243 1352ZM670 854Q557 854 479 770T401 551V547Q401 414 479 329T670 244Q781 244 858 328T936 547V551Q936 685 859 769T670 854Z" />
<glyph unicode="e" glyph-name="e" horiz-adv-x="1255" d="M391 635H860Q846 742 786 805T629 868Q534 868 472 806T391 635ZM1040 109Q883 -25 659 -25Q410 -25 248 134T86 543V547Q86 703 154 833T347 1040T629 1118Q735 1118 824 1085T973 998T1076 874T1137
732T1157 590Q1157 523 1116 482T1012 440H395Q418 335 488 280T664 225Q784 225 885 299Q919 324 961 324Q1012 324 1046 289T1081 201Q1081 145 1040 109Z" />
<glyph unicode="f" glyph-name="f" horiz-adv-x="782" d="M193 143V831H180Q127 831 89 868T51 958Q51 1012 89 1049T180 1087H193V1157Q193 1337 281 1423Q366 1509 532 1509Q614 1509 659 1501Q702 1495 734 1461T766 1376Q766 1324 729 1286T639 1247H612Q500
1247 500 1128V1085H635Q689 1085 726 1049T764 958Q764 905 727 868T635 831H504V143Q504 79 459 34T348 -12Q284 -12 239 33T193 143Z" />
<glyph unicode="g" glyph-name="g" horiz-adv-x="1382" d="M631 -332Q421 -332 229 -256Q188 -241 165 -210T141 -135Q141 -83 178 -46T268 -8Q296 -8 319 -18Q465 -84 623 -84Q936 -84 936 215V268Q862 179 779 135T578 90Q481 90 394 125T238 223T130 385T90
602V606Q90 725 130 823T239 985T395 1083T578 1118Q696 1118 778 1076T932 954V956Q932 1019 977 1064T1087 1110Q1152 1110 1197 1065T1243 954V248Q1243 -45 1104 -184Q956 -332 631 -332ZM668 348Q782 348 859 419T936 602V606Q936 717 860 788T668 860T477
789T401 606V602Q401 490 477 419T668 348Z" />
<glyph unicode="h" glyph-name="h" horiz-adv-x="1275" d="M139 143V1352Q139 1416 184 1461T295 1507T405 1462T451 1352V942Q514 1024 589 1071T772 1118Q948 1118 1046 1010T1145 711V143Q1145 79 1100 34T989 -12T879 33T834 143V612Q834 722 785 779T645
836Q554 836 503 779T451 612V143Q451 79 406 34T295 -12T185 33T139 143Z" />
<glyph unicode="i" glyph-name="i" horiz-adv-x="618" d="M135 1356V1360Q135 1426 184 1465T309 1505Q385 1505 434 1466T483 1360V1356Q483 1290 434 1249T309 1208T185 1249T135 1356ZM154 143V954Q154 1019 199 1064T309 1110Q374 1110 419 1064T465 954V143Q465
79 420 34T309 -12T199 33T154 143Z" />
<glyph unicode="j" glyph-name="j" horiz-adv-x="618" d="M135 1356V1360Q135 1426 184 1465T309 1505Q385 1505 434 1466T483 1360V1356Q483 1290 434 1249T309 1208T185 1249T135 1356ZM133 -334H129Q51 -334 3 -302T-45 -207Q-45 -151 -10 -117T76 -82H78Q154
-82 154 20V954Q154 1019 199 1064T309 1110Q374 1110 419 1064T465 954V18Q465 -158 378 -246T133 -334Z" />
<glyph unicode="k" glyph-name="k" horiz-adv-x="1204" d="M139 143V1352Q139 1416 184 1461T295 1507T405 1462T451 1352V672L840 1040Q878 1076 908 1093T977 1110Q1038 1110 1076 1069T1114 971Q1114 905 1042 836L797 625L1090 229Q1128 176 1128 129Q1128
67 1086 28T983 -12Q937 -12 907 4T848 59L575 434L451 322V143Q451 79 406 34T295 -12T185 33T139 143Z" />
<glyph unicode="l" glyph-name="l" horiz-adv-x="618" d="M154 143V1352Q154 1416 199 1461T309 1507T419 1462T465 1352V143Q465 79 420 34T309 -12T199 33T154 143Z" />
<glyph unicode="m" glyph-name="m" horiz-adv-x="1945" d="M139 143V954Q139 1018 184 1064T295 1110T405 1064T451 954V942Q514 1023 590 1070T774 1118Q881 1118 960 1073T1083 944Q1232 1118 1444 1118Q1619 1118 1717 1015T1815 715V143Q1815 79 1770 34T1659
-12T1549 33T1503 143V612Q1503 722 1456 779T1321 836Q1232 836 1183 779T1133 612V143Q1133 79 1088 34T977 -12T867 33T821 143V612Q821 722 774 779T639 836Q550 836 501 779T451 612V143Q451 79 406 34T295 -12T185 33T139 143Z" />
<glyph unicode="n" glyph-name="n" horiz-adv-x="1275" d="M139 143V954Q139 1018 184 1064T295 1110T405 1064T451 954V942Q514 1024 589 1071T772 1118Q948 1118 1046 1010T1145 711V143Q1145 79 1100 34T989 -12T879 33T834 143V612Q834 722 785 779T645 836Q554
836 503 779T451 612V143Q451 79 406 34T295 -12T185 33T139 143Z" />
<glyph unicode="o" glyph-name="o" horiz-adv-x="1359" d="M678 -25Q511 -25 375 51T163 257T86 543V547Q86 664 131 769T255 951T445 1073T682 1118Q849 1118 985 1043T1197 837T1274 551V547Q1274 391 1197 260T983 52T678 -25ZM682 244Q811 244 889 330T967
543V547Q967 672 886 761T678 850Q549 850 471 764T393 551V547Q393 422 474 333T682 244Z" />
<glyph unicode="p" glyph-name="p" horiz-adv-x="1382" d="M139 -184V954Q139 1018 184 1064T295 1110T405 1064T451 954V940Q582 1118 793 1118Q890 1118 979 1081T1138 973T1250 794T1292 551V547Q1292 414 1251 305T1140 125T981 18T793 -20Q586 -20 451 143V-184Q451
-248 406 -294T295 -340T185 -294T139 -184ZM601 244T713 244T903 328T981 547V551Q981 684 903 769T713 854T524 770T446 551V547Q446 413 523 329Z" />
<glyph unicode="q" glyph-name="q" horiz-adv-x="1382" d="M1243 954V-184Q1243 -249 1198 -294T1087 -340Q1023 -340 978 -295T932 -184V158Q801 -20 590 -20Q493 -20 404 17T245 125T132 304T90 547V551Q90 684 131 793T243 973T402 1080T590 1118Q794 1118
932 954V956Q932 1019 977 1064T1087 1110Q1152 1110 1197 1065T1243 954ZM670 854Q557 854 479 770T401 551V547Q401 414 479 329T670 244Q781 244 858 328T936 547V551Q936 685 859 769T670 854Z" />
<glyph unicode="r" glyph-name="r" horiz-adv-x="856" d="M139 143V954Q139 1018 184 1064T295 1110T405 1064T451 954V905Q489 994 543 1052T662 1110Q733 1110 773 1068T813 958Q813 900 780 862T696 813Q451 755 451 434V143Q451 79 406 34T295 -12T185 33T139 143Z" />
<glyph unicode="s" glyph-name="s" horiz-adv-x="1028" d="M524 -20Q303 -20 111 104Q51 142 51 211Q51 264 86 299T174 334Q210 334 236 317Q393 219 532 219Q598 219 631 241T664 301V305Q664 316 661 326T649 344T633 360T609 374T581 386T549 398T514 409T476
420T436 432Q382 448 342 463T256 506T179 567T129 650T109 762V766Q109 928 223 1021T510 1114Q680 1114 850 1030Q924 994 924 913Q924 862 888 827T799 791Q770 791 741 805Q600 874 504 874Q449 874 419 853T389 799V795Q389 785 392 776T404 759T420 743T443
728T470 715T502 702T535 690T573 677T612 664Q668 645 707 629T794 585T872 525T923 445T944 338V334Q944 159 828 70T524 -20Z" />
<glyph unicode="t" glyph-name="t" horiz-adv-x="849" d="M510 -18Q355 -18 273 56T190 311V831H180Q125 831 86 870T47 965Q47 1020 86 1059T180 1098H190V1235Q190 1300 236 1345T346 1391T456 1346T502 1235V1098H639Q694 1098 733 1059T772 965Q772 909 733
870T639 831H502V362Q502 308 526 282T602 256Q608 256 622 257T639 258Q692 258 730 221T768 129Q768 89 745 57T688 12Q610 -18 510 -18Z" />
<glyph unicode="u" glyph-name="u" horiz-adv-x="1275" d="M1137 954V143Q1137 79 1092 34T981 -12T871 33T825 143V156Q762 74 687 27T504 -20Q328 -20 230 88T131 387V954Q131 1018 176 1064T287 1110Q351 1110 396 1065T442 954V485Q442 376 491 319T631 262Q722
262 773 319T825 485V954Q825 1018 870 1064T981 1110T1091 1064T1137 954Z" />
<glyph unicode="v" glyph-name="v" horiz-adv-x="1204" d="M786 113Q728 -23 610 -23H594Q476 -23 418 113L82 889Q66 929 66 965Q66 1021 110 1065T217 1110Q329 1110 369 999L604 362L844 1004Q884 1110 989 1110Q1051 1110 1095 1068T1139 963Q1139 929 1122
889L786 113Z" />
<glyph unicode="w" glyph-name="w" horiz-adv-x="1738" d="M514 -20Q390 -20 342 119L74 893Q59 938 59 969Q59 1025 101 1067T209 1110Q266 1110 304 1078T360 989L528 432L700 987Q718 1044 759 1078T860 1112H879Q937 1112 979 1078T1038 987L1212 430L1384
991Q1422 1110 1534 1110Q1597 1110 1638 1068T1679 967Q1679 940 1669 903L1393 119Q1345 -20 1221 -20H1210Q1152 -20 1108 13T1042 113L868 666L692 113Q672 47 628 14T524 -20H514Z" />
<glyph unicode="x" glyph-name="x" horiz-adv-x="1175" d="M82 61T82 119T125 225L406 557L150 852Q98 913 98 971Q98 1035 140 1074T242 1114Q323 1114 387 1034L590 764L797 1034Q863 1114 932 1114Q994 1114 1035 1076T1077 979Q1077 925 1034 872L768 561L1042
246Q1094 185 1094 127Q1094 63 1052 24T950 -16Q869 -16 805 63L584 354L362 63Q299 -16 227 -16Q165 -16 124 22Z" />
<glyph unicode="y" glyph-name="y" horiz-adv-x="1200" d="M367 -334Q275 -334 197 -305Q98 -270 98 -176Q98 -121 135 -85T221 -49Q248 -49 272 -57Q311 -70 338 -70Q381 -70 404 -57T449 -4L459 20L84 889Q68 929 68 961Q68 1026 112 1068T221 1110Q328 1110
371 993L608 354L838 991Q881 1110 987 1110Q1048 1110 1091 1069T1135 967Q1135 928 1120 893L737 -27Q667 -197 586 -265T367 -334Z" />
<glyph unicode="z" glyph-name="z" horiz-adv-x="1153" d="M242 0Q176 0 133 35T90 125V131Q90 174 106 207T160 283L670 846H236Q183 846 146 882T109 971T146 1060T236 1098H918Q984 1098 1026 1063T1069 973V967Q1069 923 1053 890T999 815L487 252H942Q994
252 1031 215T1069 125Q1069 73 1032 37T942 0H242Z" />
<glyph unicode="{" glyph-name="braceleft" horiz-adv-x="1003" d="M770 -272Q620 -238 532 -183T408 -57T373 117Q373 131 376 185T379 258Q379 364 339 411T213 465Q154 470 120 503T86 588T120 673T213 711Q298 717 338 764T379 918Q379 935 376 989T373 1059Q373
1212 461 1304T770 1448Q830 1461 871 1430T913 1341Q913 1300 891 1273T840 1237Q729 1198 693 1150T657 1014Q657 994 660 939T664 862Q664 754 611 689T451 588Q557 553 610 488T664 313Q664 291 661 237T657 162Q657 74 692 26T840 -61Q868 -71 890 -97T913
-166Q913 -223 872 -254T770 -272Z" />
<glyph unicode="|" glyph-name="bar" horiz-adv-x="716" d="M236 -152V1524Q236 1574 272 1610T358 1647Q409 1647 445 1611T481 1524V-152Q481 -202 445 -238T358 -274Q308 -274 272 -238T236 -152Z" />
<glyph unicode="}" glyph-name="braceright" horiz-adv-x="1003" d="M233 1448Q454 1397 542 1305T631 1059Q631 1044 628 990T625 918Q625 812 665 765T791 711Q849 706 883 673T918 588T884 503T791 465Q706 459 666 412T625 258Q625 240 628 186T631 117Q631
41 612 -17T547 -124T424 -210T233 -272Q174 -286 132 -255T90 -166Q90 -124 112 -98T164 -61Q275 -22 310 26T346 162Q346 182 343 236T340 313Q340 422 393 487T553 588Q447 623 394 688T340 862Q340 884 343 939T346 1014Q346 1102 311 1150T164 1237Q136 1246
113 1273T90 1341Q90 1398 132 1429T233 1448Z" />
<glyph unicode="~" glyph-name="asciitilde" horiz-adv-x="1044" d="M287 500Q257 453 207 453Q171 453 143 478T115 537Q115 564 125 592Q162 691 214 742T354 793Q408 793 469 773T582 733T662 713Q697 713 717 726T758 772Q786 819 838 819Q874 819 902 794T930
735Q930 707 920 680Q882 581 830 530T690 479Q636 479 575 499T463 539T383 559Q347 559 327 546T287 500Z" />
</font>
</defs>
</svg>
